<svg xmlns="http://www.w3.org/2000/svg" viewBox="0 0 1456 470" width="1456" height="470" role="presentation">
  <!--
    登录页装饰底图（下半）。和 login-backdrop-top.svg 成对使用，这一张贴住视口下边。
    两个 translate(0 -601) 是把原稿 1080 高画布上的下半部分平移到本视口里，
    改这里的器物坐标时留意：整组还要再减 601。

    颜色必须写死，理由同 top 那张。
  -->
  <defs>
    <pattern id="zwt-dots" width="15" height="15" patternUnits="userSpaceOnUse">
      <circle cx="2" cy="2" r="1.8" fill="#d8cbb6" />
    </pattern>
  </defs>

  <!-- 柔和色块：故意溢出下边界，让色块自然出画 -->
  <circle cx="160" cy="357" r="215" fill="#eee2d1" />

  <!-- ── 左下：植物 + 档案盒 + 硬币 + 清单图标 + 点阵 ───────────────── -->
  <g transform="translate(0 -601)">
    <g transform="translate(72 690)" stroke="#c9b8a0" stroke-width="1.8">
      <path d="M6 118C2 80 6 40 14 2" fill="none" stroke-width="2" />
      <path d="M8 96C-14 88-22 68-18 52 0 56 10 76 8 96Z" fill="#eee2d1" />
      <path d="M10 74C32 66 42 46 38 30 20 34 10 54 10 74Z" fill="#f2e9dc" />
      <path d="M12 48C-8 40-16 20-12 4 6 8 14 28 12 48Z" fill="#eee2d1" />
      <path d="M15 26C34 18 42 0 38-14 22-10 14 8 15 26Z" fill="#f2e9dc" />
    </g>

    <g>
      <!-- 档案盒：第三只故意用深色，给整幅图一个视觉锚点 -->
      <rect x="34" y="802" width="40" height="190" rx="3" fill="#e7d8c1" stroke="#c9b8a0" stroke-width="2" />
      <rect x="37" y="854" width="34" height="46" rx="2" fill="#fdfbf8" stroke="#c9b8a0" stroke-width="1.8" />
      <circle cx="54" cy="958" r="5" fill="none" stroke="#c9b8a0" stroke-width="2" />

      <rect x="80" y="794" width="40" height="198" rx="3" fill="#ddcbb0" stroke="#c9b8a0" stroke-width="2" />
      <rect x="83" y="850" width="34" height="46" rx="2" fill="#fdfbf8" stroke="#c9b8a0" stroke-width="1.8" />
      <circle cx="100" cy="958" r="5" fill="none" stroke="#c9b8a0" stroke-width="2" />

      <rect x="126" y="800" width="40" height="192" rx="3" fill="#3b3630" />
      <rect x="129" y="852" width="34" height="46" rx="2" fill="#fdfbf8" />
      <circle cx="146" cy="958" r="5" fill="none" stroke="#f2e9dc" stroke-width="2" />

      <rect x="172" y="808" width="40" height="184" rx="3" fill="#e7d8c1" stroke="#c9b8a0" stroke-width="2" />
      <rect x="175" y="858" width="34" height="46" rx="2" fill="#fdfbf8" stroke="#c9b8a0" stroke-width="1.8" />
      <circle cx="192" cy="958" r="5" fill="none" stroke="#c9b8a0" stroke-width="2" />
    </g>

    <g>
      <circle cx="228" cy="946" r="36" fill="#c19a6b" stroke="#a97c4c" stroke-width="2" />
      <circle cx="228" cy="946" r="27" fill="none" stroke="#f2e9dc" stroke-width="2" />
      <g fill="none" stroke="#f6efe6" stroke-width="3.4" stroke-linecap="round">
        <path d="M228 928v36" />
        <path d="M236 936c0-4-4-6-8-6s-8 2-8 6 4 5 8 6 8 2 8 6-4 6-8 6-8-2-8-6" />
      </g>
    </g>

    <g>
      <circle cx="348" cy="808" r="26" fill="#fdfbf8" stroke="#c9b8a0" stroke-width="2" />
      <g stroke="#c19a6b" stroke-width="2.2" stroke-linecap="round" fill="none">
        <path d="M341 801h14" />
        <path d="M341 808h14" />
        <path d="M341 815h10" />
      </g>
      <g fill="#c9b8a0">
        <circle cx="336" cy="801" r="1.6" />
        <circle cx="336" cy="808" r="1.6" />
        <circle cx="336" cy="815" r="1.6" />
      </g>
    </g>
    <rect x="296" y="952" width="72" height="42" fill="url(#zwt-dots)" />
  </g>

  <!-- ── 右下：柱状图 + 两张发票 + 笔 + 卡片 + 长曲线 ──────────────── -->
  <g transform="translate(0 -601)">
    <g>
      <path d="M892 930h150" stroke="#c9b8a0" stroke-width="2" fill="none" />
      <rect x="900" y="884" width="18" height="46" rx="2" fill="#eee2d1" stroke="#c9b8a0" stroke-width="1.8" />
      <rect x="924" y="856" width="18" height="74" rx="2" fill="#c19a6b" />
      <rect x="948" y="874" width="18" height="56" rx="2" fill="#eee2d1" stroke="#c9b8a0" stroke-width="1.8" />
      <rect x="972" y="840" width="18" height="90" rx="2" fill="#c19a6b" />
      <rect x="996" y="864" width="18" height="66" rx="2" fill="#eee2d1" stroke="#c9b8a0" stroke-width="1.8" />
      <path d="M902 846l34-20 26 12 38-32 24 12" fill="none" stroke="#c9b8a0" stroke-width="2" stroke-linecap="round" stroke-linejoin="round" />
      <g fill="#fdfbf8" stroke="#c9b8a0" stroke-width="2">
        <circle cx="902" cy="846" r="4" />
        <circle cx="962" cy="838" r="4" />
        <circle cx="1024" cy="818" r="4" />
      </g>
    </g>

    <g transform="translate(1238 676) rotate(9)">
      <rect x="0" y="0" width="188" height="248" rx="5" fill="#fdfbf8" stroke="#c9b8a0" stroke-width="2" />
      <g stroke="#d8cbb6" stroke-width="2.6" stroke-linecap="round" fill="none">
        <path d="M24 34h74" />
        <path d="M24 50h50" />
        <path d="M24 92h140" />
        <path d="M24 110h140" />
        <path d="M24 128h110" />
        <path d="M24 160h140" />
        <path d="M24 178h140" />
        <path d="M24 196h96" />
      </g>
      <path d="M24 70h140" stroke="#c9b8a0" stroke-width="2" fill="none" />
    </g>

    <g transform="translate(1062 728) rotate(-4)">
      <rect x="0" y="0" width="222" height="292" rx="6" fill="#fdfbf8" stroke="#c9b8a0" stroke-width="2.2" />
      <g stroke="#d8cbb6" stroke-width="3" stroke-linecap="round" fill="none">
        <path d="M28 40h86" />
        <path d="M28 58h58" />
      </g>
      <path d="M28 80h166" stroke="#c9b8a0" stroke-width="2" fill="none" />
      <g stroke="#d8cbb6" stroke-width="2.8" stroke-linecap="round" fill="none">
        <path d="M28 104h166" />
        <path d="M28 124h166" />
        <path d="M28 144h110" />
      </g>
      <rect x="28" y="176" width="166" height="44" rx="4" fill="#f4ece0" stroke="#c9b8a0" stroke-width="1.8" />
      <g stroke="#c9b8a0" stroke-width="2.4" stroke-linecap="round" fill="none">
        <path d="M42 190h60" />
        <path d="M42 204h40" />
      </g>
      <g stroke="#d8cbb6" stroke-width="2.8" stroke-linecap="round" fill="none">
        <path d="M28 244h166" />
        <path d="M28 264h110" />
      </g>
      <circle cx="178" cy="146" r="17" fill="#c19a6b" />
      <g fill="none" stroke="#fdfbf8" stroke-width="2.3" stroke-linecap="round">
        <path d="M178 136v20" />
        <path d="M183 140.5c0-2.4-2.2-3.6-5-3.6s-5 1.2-5 3.6 2.2 3.2 5 3.6 5 1.2 5 3.6-2.2 3.6-5 3.6-5-1.2-5-3.6" />
      </g>
    </g>

    <g transform="translate(1252 946) rotate(-38)">
      <rect x="0" y="0" width="16" height="86" rx="3" fill="#c19a6b" stroke="#a97c4c" stroke-width="1.6" />
      <rect x="0" y="26" width="16" height="10" fill="#a97c4c" />
      <path d="M0 86h16l-8 20Z" fill="#3b3630" />
    </g>

    <g>
      <rect x="952" y="972" width="102" height="64" rx="8" fill="#fdfbf8" stroke="#c9b8a0" stroke-width="2" />
      <g fill="#c19a6b">
        <circle cx="968" cy="992" r="2.6" />
        <circle cx="968" cy="1004" r="2.6" />
        <circle cx="968" cy="1016" r="2.6" />
      </g>
      <g stroke="#d8cbb6" stroke-width="2.6" stroke-linecap="round" fill="none">
        <path d="M980 992h56" />
        <path d="M980 1004h56" />
        <path d="M980 1016h38" />
      </g>
    </g>

    <path d="M624 1046c76-36 118 0 168-22 46-20 56-58 94-48 26 7 32 24 48 28" fill="none" stroke="#c9b8a0" stroke-width="1.8" stroke-linecap="round" />
    <circle cx="812" cy="996" r="6" fill="#c19a6b" />
  </g>
</svg>
